<svg id="Capa_1" enable-background="new 0 0 512 512" height="512" viewBox="0 0 512 512" width="512" xmlns="http://www.w3.org/2000/svg"><g id="_x31_5_refresh"><path d="m504.92 229.383c-5.213-.575-26.628-2.939-29.602-3.268-14.437-116.247-113.603-208.697-236.736-208.697-131.863 0-238.582 106.707-238.582 238.582 0 131.864 106.707 238.582 238.582 238.582 69.282 0 131.939-29.528 175.765-77.25 7.796-8.489 7.234-21.692-1.255-29.488-8.489-7.797-21.692-7.234-29.488 1.255-35.991 39.19-87.576 63.742-145.022 63.742-108.539.001-196.842-88.302-196.842-196.841s88.303-196.842 196.842-196.842c96.727 0 177.381 70.131 193.789 162.216-5.804-.641-.08-.009-30.977-3.42-6.096-.673-10.621 5.523-8.126 11.125l41.987 94.272c2.472 5.55 10.007 6.382 13.631 1.505l61.539-82.844c3.656-4.922.59-11.956-5.505-12.629z" fill="#0182fc"/><g><path d="m504.92 229.383c-5.213-.576-26.628-2.939-29.602-3.268-14.437-116.248-113.604-208.697-236.736-208.697-4.894 0-9.748.165-14.568.454 116.282 6.986 208.242 96.639 222.102 208.243 2.974.328 24.389 2.692 29.602 3.268 6.096.673 9.161 7.707 5.504 12.63l-51.385 69.175 5.417 12.164c2.472 5.55 10.008 6.382 13.631 1.505l61.538-82.844c3.658-4.923.592-11.957-5.503-12.63z" fill="#0172fb"/></g></g></svg>