<svg xmlns="http://www.w3.org/2000/svg" width="48" height="48" viewBox="0 0 48 48">
    <defs>
        <linearGradient id="a" x1="101.5%" x2=".5%" y1="-.5%" y2="101.5%">
            <stop offset="0%" stop-color="#8A2387"/>
            <stop offset="63.677%" stop-color="#E94057"/>
            <stop offset="100%" stop-color="#F27121"/>
        </linearGradient>
    </defs>
    <path fill="url(#a)" fill-rule="nonzero" d="M0 0v48h48V0H0zm24.107 16.782a7.12 7.12 0 0 1 7.11 7.111 7.12 7.12 0 0 1-7.11 7.111 7.12 7.12 0 0 1-7.111-7.11 7.12 7.12 0 0 1 7.11-7.112zM6.4 5.547h7.253v4.693H6.4V5.547zM41.6 41.6H6.4V24.747h4.225c.443 7.053 6.318 12.657 13.482 12.657 7.163 0 13.039-5.604 13.481-12.657H41.6V41.6z"/>
</svg>
