<svg width="48px" height="48px" xmlns="http://www.w3.org/2000/svg">
    <path d="M24 48c13.234 0 24-9.765 24-21.753 0-11.99-10.766-21.749-24-21.749-.88 0-1.768.046-2.651.136V1.119c0-.452-.308-.863-.761-1.038a1.353 1.353 0 0 0-1.355.251l-8.504 7.722c-.484.438-.484 1.138 0 1.583l8.5 7.739c.362.319.886.418 1.359.243.453-.177.76-.585.76-1.035v-3.899c.88-.146 1.764-.212 2.651-.212 8.384 0 15.207 6.18 15.207 13.774 0 7.593-6.825 13.778-15.207 13.778-8.382 0-15.203-6.187-15.203-13.778 0-.616-.553-1.12-1.24-1.12H1.24c-.684 0-1.241.504-1.241 1.12C0 38.235 10.774 48 24 48z" fill-rule="evenodd"/>
</svg>
